# xmcd CD database file
#
# Track frame offsets:
#	150
#	30737
#	58983
#	82097
#	109494
#	142650
#	169424
#	211729
#	229713
#	277549
#	304688
#
# Disc length: 4607 seconds
#
# Revision: 0
# Processed by: cddbd v1.5.1PL0 Copyright (c) Steve Scherf et al.
# Submitted via: CDex 1.51
#
DISCID=9211fd0b
DTITLE=CARIN COSA LATIN BAND - BRAZIL
DYEAR=1900
DGENRE=Salsa
TTITLE0=BRAZIL
TTITLE1=CORCOVADO
TTITLE2=MI TIERRA
TTITLE3=EU ME SINTO BEM
TTITLE4=VOLTE PARA O SEU LAR
TTITLE5=CARIBE
TTITLE6=CUENTA ME
TTITLE7=LAS OLAS
TTITLE8=EVIL WAYS
TTITLE9=FRÜHLING
TTITLE10=BLACK MAGIC WOMAN
EXTD=
EXTT0=
EXTT1=
EXTT2=
EXTT3=
EXTT4=
EXTT5=
EXTT6=
EXTT7=
EXTT8=
EXTT9=
EXTT10=
PLAYORDER=
